<?xml version="1.0" encoding="UTF-8"?><svg id="a" xmlns="http://www.w3.org/2000/svg" viewBox="0 0 4.8 32"><defs><style>.b{fill:#fef6f9;}</style></defs><path class="b" d="M2.4,32c-.67,0-1.23-.23-1.7-.7-.47-.47-.7-1.03-.7-1.7s.23-1.23,.7-1.7,1.03-.7,1.7-.7,1.23,.23,1.7,.7,.7,1.03,.7,1.7-.23,1.23-.7,1.7c-.47,.47-1.03,.7-1.7,.7Zm0-13.6c-.67,0-1.23-.23-1.7-.7-.47-.47-.7-1.03-.7-1.7s.23-1.23,.7-1.7c.47-.47,1.03-.7,1.7-.7s1.23,.23,1.7,.7c.47,.47,.7,1.03,.7,1.7s-.23,1.23-.7,1.7c-.47,.47-1.03,.7-1.7,.7Zm0-13.6c-.67,0-1.23-.23-1.7-.7-.47-.47-.7-1.03-.7-1.7S.23,1.17,.7,.7c.47-.47,1.03-.7,1.7-.7s1.23,.23,1.7,.7c.47,.47,.7,1.03,.7,1.7s-.23,1.23-.7,1.7c-.47,.47-1.03,.7-1.7,.7Z"/></svg>